Sans soleil (1983)

"He wrote me...." A woman narrates the thoughts of a world traveler, meditations on time and memory expressed in words and images from places as far-flung as Japan, Guinea-Bissau, Iceland, and San Francisco. Written by George S. Davis 



General
Unique ID                                : 240775071873564783780766176313985735290 (0xB5239792720295278B77AE59E2801A7A)
Complete name                            : Sans.Soleil.1983.720p.BluRay.x264-CiNEFiLE.mkv
Format                                   : Matroska
Format version                           : Version 2
File size                                : 4.37 GiB
Duration                                 : 1h 44mn
Overall bit rate                         : 6 010 Kbps
Encoded date                             : UTC 2012-01-30 07:35:19
Writing application                      : mkvmerge v5.2.1 ('A Far Off Place') built on Jan  2 2012 23:21:10
Writing library                          : libebml v1.2.3 + libmatroska v1.3.0

Video
ID                                       : 1
Format                                   : AVC
Format/Info                              : Advanced Video Codec
Format profile                           : High@L4.1
Format settings, CABAC                   : Yes
Format settings, ReFrames                : 5 frames
Codec ID                                 : V_MPEG4/ISO/AVC
Duration                                 : 1h 44mn
Bit rate                                 : 5 371 Kbps
Width                                    : 1 184 pixels
Height                                   : 720 pixels
Display aspect ratio                     : 1.644
Frame rate                               : 23.976 fps
Color space                              : YUV
Chroma subsampling                       : 4:2:0
Bit depth                                : 8 bits
Scan type                                : Progressive
Bits/(Pixel*Frame)                       : 0.263
Stream size                              : 3.82 GiB (87%)
Writing library                          : x264 core 120 r2146 bcd41db

Language                                 : English
Default                                  : Yes
Forced                                   : No

Audio
ID                                       : 2
Format                                   : AC-3
Format/Info                              : Audio Coding 3
Mode extension                           : CM (complete main)
Codec ID                                 : A_AC3
Duration                                 : 1h 44mn
Bit rate mode                            : Constant
Bit rate                                 : 640 Kbps
Channel(s)                               : 1 channel
Channel positions                        : Front: C
Sampling rate                            : 48.0 KHz
Bit depth                                : 16 bits
Compression mode                         : Lossy
Stream size                              : 476 MiB (11%)
Language                                 : French
Default                                  : Yes
Forced                                   : No

Text
ID                                       : 3
Format                                   : UTF-8
Codec ID                                 : S_TEXT/UTF8
Codec ID/Info                            : UTF-8 Plain Text
Language                                 : English
Default                                  : Yes
Forced                                   : No
